<svg width="203" height="65" viewBox="0 0 203 65" fill="none" xmlns="http://www.w3.org/2000/svg">
<g clip-path="url(#clip0_284_498)">
<path d="M18.8744 31.0245H18.0772L15.3467 11.2645H10.1647L7.44083 31.0245H6.6436L7.60028 1.28049H0.119629L1.62107 37.869H10.4371L12.4634 21.9765H13.0015L15.0809 37.869H23.8969L25.3917 1.28049H17.9111L18.8744 31.0245Z" fill="black"/>
<path d="M36.7123 16.4905H34.0416V1.28049H26.8267V37.869H34.0416V22.659H36.7123V37.869H43.9205V1.28049H36.7123V16.4905Z" fill="black"/>
<path d="M45.8604 37.869H59.9115V31.6485H53.0753V22.295H57.9915V16.016H53.0753V7.50099H59.9115V1.28049H45.8604V37.869Z" fill="black"/>
<path d="M61.1406 37.869H75.1918V31.6485H68.3555V22.295H73.2718V16.016H68.3555V7.50099H75.1918V1.28049H61.1406V37.869Z" fill="black"/>
<path d="M83.6358 1.28049H76.4209V37.869H90.472V31.6485H83.6358V1.28049Z" fill="black"/>
<path d="M100.437 11.8105C100.238 13.143 99.6866 15.4245 98.7831 18.642C97.8795 21.9115 97.182 24.1995 96.6837 25.5125C96.1854 26.8255 95.7337 27.4755 95.335 27.4755C94.9564 27.4755 94.87 26.8125 95.0693 25.4735C95.2686 24.141 95.8067 21.8595 96.6837 18.642C97.5872 15.3725 98.2914 13.0845 98.7963 11.7715C99.3079 10.465 99.753 9.80851 100.132 9.80851C100.537 9.80851 100.637 10.478 100.431 11.8105M105.041 11.8235C105.041 9.92551 104.689 8.47601 103.992 7.49451C103.294 6.50651 102.258 6.01901 100.882 6.01901C99.5072 6.01901 98.2981 6.48051 97.1886 7.39051C96.0725 8.30701 95.0494 9.69151 94.1126 11.544C93.1759 13.3965 92.3056 15.7625 91.5017 18.642C90.7908 21.2875 90.4387 23.556 90.452 25.4605C90.4653 27.365 90.8174 28.808 91.5216 29.7895C92.2192 30.7775 93.249 31.265 94.5976 31.265C95.9462 31.265 97.2152 30.81 98.3313 29.8935C99.4474 28.977 100.464 27.5925 101.387 25.74C102.311 23.8875 103.168 21.5215 103.945 18.642C104.683 15.9965 105.048 13.728 105.048 11.8235" fill="black"/>
<path d="M101.567 30.8165H106.37L109.034 21.0795H112.13L113.266 16.9065H110.21L111.918 10.608H116.289L117.425 6.4675H108.25L101.567 30.8165Z" fill="black"/>
<path d="M137.528 31.0245H136.731L134.007 11.2645H128.818L126.095 31.0245H125.297L126.254 1.28049H118.773L120.275 37.869H129.091L131.117 21.9765H131.655L133.735 37.869H142.551L144.046 1.28049H136.572L137.528 31.0245Z" fill="black"/>
<path d="M155.413 29.874C155.18 31.863 154.762 32.851 154.157 32.851C153.586 32.851 153.187 31.8565 152.955 29.874C152.722 27.885 152.609 24.453 152.609 19.578C152.609 14.703 152.722 11.2645 152.955 9.28199C153.187 7.29299 153.586 6.30499 154.157 6.30499C154.762 6.30499 155.18 7.29949 155.413 9.28199C155.645 11.271 155.758 14.703 155.758 19.578C155.758 24.453 155.645 27.8915 155.413 29.874ZM159.339 2.74299C157.951 1.31299 156.223 0.597992 154.157 0.597992C152.091 0.597992 150.417 1.31299 149.028 2.74299C147.64 4.17299 146.59 6.29849 145.879 9.11949C145.168 11.9405 144.81 15.4245 144.81 19.5715C144.81 23.7185 145.168 27.2025 145.879 30.0235C146.59 32.8445 147.64 34.97 149.028 36.4C150.417 37.83 152.124 38.545 154.157 38.545C156.19 38.545 157.951 37.83 159.339 36.4C160.728 34.97 161.771 32.8445 162.462 30.0235C163.159 27.2025 163.505 23.7185 163.505 19.5715C163.505 15.4245 163.159 11.9405 162.462 9.11949C161.764 6.29849 160.728 4.17299 159.339 2.74299Z" fill="black"/>
<path d="M172.394 6.66249C173.211 6.66249 173.815 7.04599 174.207 7.81299C174.599 8.57999 174.792 9.74999 174.792 11.3165C174.792 12.883 174.593 13.9555 174.207 14.742C173.815 15.5285 173.211 15.9185 172.394 15.9185H172.128V6.66899H172.394V6.66249ZM182.093 36.4585C181.861 36.0035 181.748 35.464 181.748 34.84V27.001C181.748 24.7715 181.11 23.049 179.821 21.827C178.539 20.605 176.632 20.0005 174.108 20.0005H172.128V19.318C175.37 19.318 177.835 18.5575 179.529 17.043C181.223 15.5285 182.067 13.325 182.067 10.4325C182.067 8.54749 181.668 6.92249 180.864 5.54449C180.06 4.16649 178.924 3.11349 177.443 2.37899C175.961 1.64449 174.194 1.28049 172.128 1.28049H164.913V37.8755H172.128V23.3935C172.945 23.3935 173.55 23.6015 173.942 24.0175C174.334 24.4335 174.526 25.116 174.526 26.0585V34.372C174.526 35.659 174.719 36.569 175.111 37.089C175.503 37.609 176.181 37.8755 177.144 37.8755H183.023V37.3555C182.631 37.219 182.319 36.92 182.087 36.465" fill="black"/>
<path d="M197.699 16.6985L200.264 1.28049H193.049V16.4385H190.916V1.28049H183.701V37.869H190.916V22.399H191.986L193.587 37.869H201.386L197.699 16.6985Z" fill="black"/>
<path d="M95.5209 62.79C94.4646 62.79 93.3817 62.6795 92.259 62.4715C91.1428 62.257 90.0998 61.919 89.1298 61.451C88.1665 60.983 87.3892 60.3785 86.7979 59.6375C86.2067 58.8965 85.9077 57.98 85.9077 56.901C85.9077 56.121 86.0871 55.354 86.4458 54.6C87.4224 52.4615 88.8707 50.7325 90.7907 49.426C92.7107 48.1195 94.9164 47.138 97.4077 46.4815C96.4843 45.799 96.0192 44.993 96.0192 44.0635C96.0192 43.5825 96.1189 43.121 96.3115 42.666C96.5042 42.211 96.7301 41.782 96.9892 41.379C97.607 40.4755 98.4308 39.6695 99.4606 38.961C100.49 38.259 101.633 37.6675 102.895 37.1865C104.158 36.7055 105.446 36.3415 106.775 36.0945C108.104 35.8475 109.353 35.7175 110.542 35.7175C111.24 35.7175 111.95 35.789 112.681 35.9255C113.412 36.062 114.023 36.322 114.515 36.699C115.007 37.076 115.246 37.6415 115.246 38.3955C115.246 39.078 114.953 39.7345 114.375 40.378C113.797 41.0215 113.067 41.34 112.196 41.34C111.99 41.34 111.764 41.2945 111.519 41.21C111.273 41.119 111.153 40.963 111.153 40.7355C111.153 40.612 111.213 40.482 111.326 40.3585C111.439 40.235 111.592 40.17 111.771 40.17C111.897 40.17 112.01 40.196 112.097 40.248C112.19 40.3 112.283 40.326 112.389 40.326C112.901 40.326 113.299 40.092 113.585 39.6305C113.87 39.1625 114.01 38.766 114.01 38.441C114.01 37.9405 113.844 37.5635 113.512 37.3295C113.18 37.089 112.774 36.933 112.296 36.855C111.818 36.777 111.353 36.7445 110.888 36.7445C109.778 36.7445 108.609 36.855 107.373 37.0825C106.137 37.31 104.922 37.635 103.726 38.064C102.53 38.493 101.44 39.0325 100.464 39.689C99.4872 40.3455 98.7032 41.0995 98.1119 41.9575C97.906 42.2825 97.7266 42.627 97.5738 42.978C97.421 43.329 97.3413 43.693 97.3413 44.07C97.3413 44.551 97.4874 44.967 97.7864 45.318C98.0787 45.669 98.4773 45.9615 98.9623 46.189C99.9389 46.0135 100.909 45.89 101.879 45.812C102.842 45.734 103.812 45.7015 104.795 45.7015C105.001 45.7015 105.32 45.734 105.759 45.799C106.197 45.864 106.416 46.046 106.416 46.345C106.416 46.5985 106.264 46.826 105.951 47.0275C105.646 47.229 105.294 47.3915 104.908 47.515C104.523 47.6385 104.197 47.7165 103.945 47.7425C103.301 47.8205 102.656 47.853 102.018 47.853C101.5 47.853 100.982 47.814 100.457 47.7425C99.9323 47.6645 99.4207 47.541 98.9357 47.3655C98.7829 47.3915 98.6301 47.4175 98.4906 47.4435C98.3511 47.4695 98.1983 47.5085 98.0455 47.554C95.7003 48.1065 93.6076 48.9775 91.7541 50.1605C89.9005 51.3435 88.5253 52.9425 87.6218 54.9575C87.3361 55.588 87.1966 56.2185 87.1966 56.849C87.1966 57.7525 87.4623 58.526 87.9872 59.15C88.512 59.7805 89.1896 60.281 90.0134 60.658C90.8372 61.035 91.7341 61.308 92.7174 61.4705C93.694 61.633 94.6241 61.7175 95.4944 61.7175H95.9594C98.4308 61.7175 100.829 61.3145 103.161 60.5085C105.486 59.7025 107.579 58.5975 109.433 57.187C109.844 56.862 110.263 56.498 110.688 56.0885C111.113 55.6855 111.452 55.2825 111.711 54.8795C111.917 54.5805 112.077 54.2555 112.196 53.9175C112.309 53.5795 112.369 53.2415 112.369 52.9165C112.369 52.39 112.249 52.0195 112.004 51.805C111.758 51.5905 111.485 51.4605 111.173 51.4085C110.868 51.3565 110.589 51.311 110.343 51.259C110.097 51.207 109.977 51.0575 109.977 50.804C109.977 50.6285 110.044 50.492 110.17 50.388C110.296 50.2905 110.456 50.2385 110.635 50.2385C111.559 50.2385 112.303 50.4985 112.854 51.012C113.405 51.5255 113.684 52.1625 113.684 52.9165C113.684 53.3455 113.605 53.7745 113.452 54.2035C113.299 54.6325 113.106 55.0355 112.874 55.4125C112.542 55.9195 112.103 56.4135 111.559 56.901C111.014 57.3885 110.489 57.824 109.977 58.201C108.024 59.6375 105.852 60.762 103.473 61.581C101.095 62.4 98.6036 62.8095 96.0059 62.8095H95.5409L95.5209 62.79Z" fill="black"/>
<path d="M109.26 64.6035C109.081 64.6035 108.921 64.545 108.775 64.4345C108.629 64.324 108.562 64.1875 108.562 64.038C108.562 63.934 108.602 63.8495 108.675 63.7715C110.323 61.7825 112.057 59.839 113.884 57.9345C115.711 56.0365 117.604 54.2035 119.558 52.442C119.531 52.143 119.471 51.688 119.385 51.0835C119.292 50.479 119.172 49.894 119.019 49.3285C118.867 48.763 118.661 48.3665 118.402 48.139C118.275 48.0155 118.209 47.8855 118.209 47.762C118.209 47.411 118.415 47.2355 118.827 47.2355C119.112 47.2355 119.365 47.4175 119.597 47.7815C119.83 48.1455 120.023 48.5875 120.175 49.101C120.328 49.6145 120.454 50.102 120.541 50.557C120.627 51.012 120.687 51.324 120.714 51.4995C120.893 51.35 121.232 51.064 121.737 50.648C122.235 50.232 122.82 49.764 123.471 49.2505C124.128 48.737 124.786 48.2235 125.437 47.723C126.095 47.2225 126.66 46.8065 127.138 46.475C127.616 46.15 127.915 45.981 128.048 45.981C128.227 45.981 128.374 46.0395 128.493 46.15C128.606 46.2605 128.666 46.384 128.666 46.5075C128.666 46.657 128.573 46.8 128.394 46.9235C127.982 47.2485 127.556 47.5735 127.118 47.8855C126.679 48.1975 126.241 48.5225 125.809 48.8475C124.162 50.1345 122.541 51.454 120.946 52.8125C120.946 53.2675 120.979 53.924 121.046 54.7755C121.112 55.6335 121.192 56.4395 121.298 57.1935C121.504 58.4025 121.943 59.007 122.614 59.007C122.972 59.007 123.378 58.838 123.829 58.5C124.281 58.162 124.74 57.7265 125.198 57.2C125.71 56.6215 126.141 56.082 126.493 55.575C126.839 55.0745 127.091 54.717 127.244 54.5155C127.45 54.262 127.643 54.0085 127.822 53.742C128.002 53.4755 128.181 53.222 128.36 52.9685C128.487 52.793 128.646 52.689 128.825 52.6695H128.905C129.191 52.6695 129.357 52.819 129.41 53.1245C129.463 53.248 129.437 53.365 129.33 53.4625C128.766 54.522 127.736 55.9195 126.241 57.655C125.597 58.383 124.912 59.0005 124.195 59.5075C123.477 60.008 122.806 60.2615 122.188 60.2615C121.67 60.2615 121.225 60.047 120.84 59.618C120.454 59.189 120.182 58.474 120.029 57.4665C119.923 56.836 119.863 56.199 119.837 55.562C119.81 54.9185 119.783 54.3595 119.757 53.8785C118.495 54.9835 117.285 56.134 116.13 57.317C114.974 58.5 113.837 59.709 112.735 60.944C112.223 61.4965 111.712 62.0685 111.213 62.66C110.708 63.2515 110.203 63.8365 109.692 64.415C109.566 64.5385 109.42 64.6035 109.267 64.6035H109.26Z" fill="black"/>
<path d="M131.031 60.372C129.696 60.372 128.759 59.9885 128.234 59.2215C127.709 58.4545 127.443 57.551 127.443 56.524C127.443 55.77 127.636 54.8665 128.021 53.8265C128.407 52.78 128.938 51.753 129.622 50.752C130.307 49.7445 131.097 48.906 131.994 48.243C132.891 47.5735 133.861 47.242 134.891 47.242C135.562 47.242 136.093 47.424 136.492 47.788C136.89 48.152 137.09 48.6135 137.09 49.166C137.09 50.2255 136.744 51.246 136.047 52.2275C135.349 53.209 134.452 54.015 133.343 54.6455C132.233 55.276 131.051 55.588 129.789 55.588C129.636 55.588 129.483 55.588 129.323 55.5685C129.171 55.5555 129.018 55.536 128.858 55.51C128.779 55.835 128.745 56.212 128.745 56.641C128.745 57.2975 128.905 57.902 129.23 58.4545C129.549 59.007 130.174 59.2865 131.104 59.2865C131.875 59.2865 132.625 59.098 133.343 58.721C134.06 58.344 134.665 57.915 135.157 57.434C135.648 56.953 136.06 56.5305 136.392 56.147C136.724 55.77 137.077 55.3345 137.435 54.847C137.794 54.353 138.246 53.7095 138.784 52.9035C138.884 52.728 139.043 52.637 139.249 52.637C139.608 52.637 139.787 52.8255 139.787 53.2025C139.787 53.326 139.761 53.43 139.707 53.5015C139.01 54.6585 138.239 55.7635 137.389 56.8035C136.538 57.85 135.595 58.708 134.552 59.371C133.509 60.034 132.333 60.372 131.018 60.372H131.031ZM130.068 54.405C131.044 54.405 131.968 54.145 132.825 53.6315C133.688 53.118 134.393 52.468 134.951 51.688C135.502 50.908 135.781 50.115 135.781 49.309C135.781 49.0295 135.708 48.8085 135.568 48.6265C135.429 48.451 135.19 48.36 134.851 48.36C134.18 48.36 133.536 48.581 132.918 49.023C132.3 49.465 131.742 50.0175 131.237 50.687C130.739 51.3565 130.313 52.013 129.961 52.6695C129.616 53.326 129.363 53.8785 129.211 54.3335C129.337 54.3595 129.476 54.379 129.616 54.392C129.755 54.405 129.908 54.4115 130.061 54.4115L130.068 54.405Z" fill="black"/>
<path d="M141.84 60.372C140.504 60.372 139.495 59.943 138.83 59.085C138.159 58.227 137.827 57.2845 137.827 56.251C137.827 55.5945 137.927 54.964 138.133 54.3465C138.339 53.729 138.611 53.144 138.943 52.5915C139.249 52.039 139.661 51.4215 140.179 50.739C140.691 50.0565 141.288 49.4065 141.953 48.776C142.624 48.1455 143.341 47.632 144.112 47.229C144.883 46.826 145.693 46.6245 146.543 46.6245C147.261 46.6245 147.799 46.839 148.145 47.268C148.49 47.697 148.663 48.1845 148.663 48.7435C148.663 48.919 148.61 49.1985 148.51 49.5755C148.404 49.9525 148.271 50.3425 148.105 50.7455C147.939 51.1485 147.739 51.493 147.507 51.7855C147.274 52.078 147.015 52.221 146.736 52.221C146.583 52.221 146.437 52.1625 146.311 52.052C146.185 51.9415 146.118 51.818 146.118 51.6945C146.118 51.6165 146.218 51.441 146.424 51.168C146.63 50.8885 146.836 50.5505 147.042 50.1475C147.248 49.7445 147.347 49.3155 147.347 48.8605C147.347 48.581 147.274 48.334 147.135 48.1065C146.995 47.879 146.73 47.7685 146.344 47.7685C145.7 47.7685 145.049 47.9635 144.398 48.3535C143.74 48.7435 143.129 49.2375 142.564 49.829C141.999 50.4205 141.494 51.012 141.056 51.6035C140.617 52.195 140.285 52.702 140.053 53.131C139.794 53.586 139.594 54.054 139.455 54.548C139.315 55.042 139.242 55.536 139.242 56.0365C139.242 56.537 139.322 57.044 139.475 57.5445C139.628 58.045 139.9 58.461 140.285 58.7925C140.671 59.1175 141.209 59.2865 141.906 59.2865C142.677 59.2865 143.421 59.098 144.145 58.721C144.863 58.344 145.474 57.915 145.959 57.434C146.47 56.953 146.889 56.5305 147.214 56.147C147.54 55.7635 147.872 55.3345 148.218 54.847C148.563 54.3595 149.008 53.7095 149.546 52.9035C149.646 52.728 149.805 52.637 150.011 52.637C150.37 52.637 150.55 52.8255 150.55 53.2025C150.55 53.326 150.523 53.43 150.47 53.5015C149.779 54.587 149.008 55.653 148.171 56.7125C147.334 57.772 146.397 58.643 145.354 59.3385C144.311 60.0275 143.135 60.3785 141.82 60.3785L141.84 60.372Z" fill="black"/>
<path d="M156.316 60.827C155.878 60.827 155.479 60.7035 155.121 60.45C154.762 60.1965 154.582 59.761 154.582 59.1305C154.582 58.3245 154.795 57.4665 155.22 56.563C155.645 55.6595 156.177 54.665 156.821 53.5795C155.998 54.509 155.081 55.5165 154.064 56.602C153.048 57.6875 152.038 58.552 151.035 59.2085C150.158 59.761 149.44 60.0405 148.876 60.0405C148.411 60.0405 148.058 59.891 147.813 59.5855C147.567 59.2865 147.447 58.8965 147.447 58.4155C147.447 57.863 147.573 57.3235 147.833 56.7905C148.397 55.484 149.042 54.054 149.766 52.507C150.483 50.96 151.247 49.595 152.045 48.412C152.124 48.3145 152.204 48.23 152.297 48.165C152.39 48.1 152.496 48.0675 152.623 48.0675C152.802 48.0675 152.961 48.1195 153.108 48.217C153.247 48.321 153.32 48.4445 153.32 48.594C153.32 48.646 153.294 48.7175 153.24 48.8215C153.088 49.1725 152.809 49.7315 152.41 50.505C152.011 51.272 151.553 52.1495 151.041 53.131C150.523 54.1125 149.998 55.12 149.46 56.1535C149.048 56.9335 148.842 57.616 148.842 58.1945C148.842 58.6495 149.009 58.877 149.341 58.877C149.493 58.877 149.66 58.825 149.846 58.7275C150.616 58.2985 151.301 57.798 151.892 57.2195C152.483 56.641 153.061 56.0495 153.626 55.445C153.985 55.068 154.343 54.691 154.689 54.314C155.034 53.937 155.38 53.547 155.712 53.144C155.838 53.0205 156.091 52.715 156.463 52.2405C156.835 51.7595 157.253 51.2265 157.718 50.635C158.183 50.0435 158.602 49.517 158.974 49.049C159.346 48.581 159.572 48.3015 159.651 48.1975C159.857 47.996 160.163 47.8985 160.575 47.8985C160.781 47.8985 160.967 47.944 161.133 48.0285C161.299 48.1195 161.385 48.2625 161.385 48.464C161.385 48.6395 161.266 48.9385 161.02 49.3545C160.774 49.7705 160.489 50.2255 160.15 50.713C159.818 51.207 159.492 51.649 159.186 52.052C158.881 52.455 158.662 52.754 158.529 52.9555C158.422 53.131 158.23 53.4625 157.951 53.9565C157.672 54.4505 157.366 55.016 157.041 55.653C156.715 56.29 156.443 56.9205 156.21 57.525C155.978 58.1295 155.865 58.63 155.865 59.033C155.865 59.488 156.057 59.7155 156.443 59.7155C156.855 59.7155 157.333 59.462 157.871 58.9615C158.409 58.461 158.98 57.837 159.572 57.0895C160.163 56.3485 160.714 55.6075 161.233 54.86C161.744 54.119 162.183 53.495 162.548 52.988C162.648 52.8645 162.754 52.7865 162.854 52.7605C162.953 52.7345 163.033 52.7215 163.086 52.7215C163.345 52.7215 163.498 52.871 163.551 53.1765C163.551 53.2545 163.458 53.469 163.279 53.82C163.099 54.171 162.92 54.4635 162.741 54.691C162.508 55.016 162.156 55.5165 161.678 56.186C161.199 56.8555 160.661 57.5575 160.057 58.2985C159.452 59.0395 158.788 59.7025 158.07 60.281C157.605 60.658 157.027 60.8465 156.336 60.8465L156.316 60.827Z" fill="black"/>
<path d="M163.804 61.3535C163.285 61.3535 162.9 61.1975 162.648 60.879C162.389 60.567 162.222 60.19 162.143 59.7675C162.063 59.345 162.03 58.9615 162.03 58.6365C162.03 57.603 162.222 56.446 162.608 55.159C162.993 53.872 163.451 52.5915 163.976 51.3045C164.501 50.0175 164.986 48.8735 165.425 47.866C164.96 47.892 164.455 47.97 163.903 48.0935C163.352 48.217 162.854 48.282 162.415 48.282C162.056 48.282 161.877 48.1325 161.877 47.827C161.877 47.398 162.109 47.1445 162.575 47.073C163.139 46.9495 163.717 46.8455 164.308 46.774C164.9 46.696 165.478 46.6375 166.042 46.5855C166.195 46.306 166.415 45.8835 166.7 45.2985C166.986 44.72 167.305 44.096 167.663 43.4265C168.022 42.757 168.381 42.1525 168.726 41.613C169.072 41.0735 169.364 40.69 169.597 40.4625C169.75 40.313 169.916 40.235 170.095 40.235C170.274 40.235 170.427 40.287 170.56 40.3845C170.686 40.4885 170.753 40.612 170.753 40.7615C170.753 40.8395 170.713 40.937 170.64 41.0605C169.995 41.8405 169.457 42.6985 169.019 43.628C168.58 44.5575 168.142 45.4675 167.703 46.345C168.168 46.293 168.653 46.2475 169.172 46.1955C169.683 46.1435 170.188 46.1175 170.68 46.1175C170.832 46.1175 170.985 46.1435 171.125 46.1955C171.264 46.2475 171.337 46.358 171.337 46.5335C171.337 46.683 171.264 46.813 171.125 46.9105C170.985 47.008 170.819 47.086 170.64 47.138C170.075 47.2355 169.49 47.32 168.886 47.385C168.281 47.45 167.683 47.515 167.092 47.593C166.76 48.347 166.375 49.192 165.936 50.1215C165.498 51.051 165.079 52.0195 164.681 53.0075C164.282 54.002 163.956 54.964 163.697 55.8935C163.438 56.823 163.312 57.668 163.312 58.422C163.312 58.5455 163.312 58.7535 163.332 59.046C163.345 59.3385 163.405 59.592 163.505 59.8195C163.604 60.047 163.764 60.1575 163.97 60.1575C164.408 60.1575 164.714 60.047 164.893 59.8195C165.073 59.592 165.278 59.4815 165.511 59.4815C165.69 59.4815 165.85 59.5335 165.996 59.631C166.135 59.735 166.209 59.8585 166.209 60.008C166.209 60.2355 166.062 60.45 165.763 60.6515C165.464 60.853 165.126 61.0155 164.74 61.1455C164.355 61.269 164.043 61.334 163.817 61.334L163.804 61.3535Z" fill="black"/>
<path d="M171.829 60.034C170.952 60.034 170.261 59.7935 169.743 59.319C169.225 58.838 168.972 58.175 168.972 57.317C168.972 56.8165 169.025 56.316 169.125 55.8285C169.225 55.3345 169.371 54.8535 169.55 54.3725C169.65 54.093 169.862 53.638 170.188 52.9945C170.507 52.351 170.892 51.675 171.324 50.9535C171.756 50.232 172.188 49.6275 172.6 49.1205C173.011 48.62 173.37 48.3665 173.682 48.3665C173.809 48.3665 173.981 48.412 174.201 48.4965C174.42 48.5875 174.526 48.7175 174.526 48.893C174.526 48.997 174.473 49.1205 174.373 49.27C173.782 49.9265 173.164 50.7065 172.52 51.61C171.875 52.5135 171.337 53.4625 170.899 54.444C170.46 55.4255 170.241 56.368 170.241 57.278C170.241 58.435 170.806 59.0135 171.942 59.0135C172.712 59.0135 173.49 58.6495 174.28 57.9215C175.064 57.1935 175.935 56.212 176.885 54.977C177.17 54.626 177.416 54.2815 177.635 53.937C177.855 53.599 178.054 53.3 178.233 53.0465C178.413 52.871 178.605 52.78 178.811 52.78C179.117 52.78 179.276 52.8905 179.276 53.118C179.276 53.3975 179.07 53.833 178.658 54.4375C178.247 55.042 177.782 55.6725 177.27 56.3225C176.267 57.5315 175.39 58.448 174.646 59.0785C173.902 59.709 172.958 60.021 171.829 60.021V60.034ZM176.154 44.5835C176.028 44.5835 175.881 44.5575 175.729 44.5055C175.576 44.4535 175.496 44.343 175.496 44.1675C175.496 44.044 175.536 43.927 175.609 43.8295C175.815 43.4525 176.194 43.1275 176.745 42.848C177.297 42.5685 177.715 42.432 178.001 42.432C178.127 42.432 178.273 42.4645 178.426 42.5295C178.579 42.5945 178.658 42.7115 178.658 42.887C178.658 43.316 178.393 43.706 177.868 44.057C177.343 44.408 176.765 44.5835 176.147 44.5835H176.154Z" fill="black"/>
<path d="M179.516 60.411C179.024 60.411 178.705 60.1965 178.552 59.7675C178.399 59.3385 178.32 58.9615 178.32 58.6365C178.32 58.058 178.399 57.317 178.552 56.407C178.705 55.5035 178.911 54.5545 179.17 53.573C178.865 54.054 178.532 54.5285 178.187 55.0095C177.841 55.4905 177.523 55.926 177.244 56.329C177.137 56.5045 176.984 56.5955 176.778 56.5955C176.599 56.5955 176.44 56.5175 176.293 56.368C176.154 56.2185 176.147 56.056 176.274 55.874C176.606 55.393 177.051 54.756 177.602 53.95C178.154 53.144 178.712 52.299 179.283 51.4215C179.848 50.544 180.326 49.7705 180.711 49.1205C180.838 48.893 180.964 48.685 181.077 48.4965C181.19 48.308 181.303 48.139 181.402 47.9895C181.582 47.814 181.828 47.723 182.133 47.723C182.313 47.723 182.472 47.775 182.618 47.8725C182.758 47.9765 182.831 48.113 182.831 48.2885C182.831 48.3405 182.817 48.3925 182.791 48.438C182.764 48.49 182.738 48.542 182.711 48.5875C182.452 48.9905 182.22 49.4065 182.014 49.8355C181.808 50.2645 181.628 50.6935 181.475 51.1225C181.09 52.2795 180.725 53.482 180.373 54.73C180.027 55.978 179.828 57.2065 179.775 58.409L179.927 58.448C180.519 57.5445 181.243 56.5565 182.107 55.484C182.97 54.4115 183.914 53.3455 184.943 52.273C185.973 51.2005 187.029 50.219 188.106 49.3285C189.189 48.438 190.232 47.71 191.235 47.1575C191.388 47.0795 191.534 47.047 191.66 47.047C191.839 47.047 191.992 47.1055 192.125 47.216C192.251 47.3265 192.318 47.463 192.318 47.6125C192.318 47.762 192.225 47.905 192.045 48.0285C191.633 48.282 191.228 48.542 190.83 48.8215C190.431 49.101 190.039 49.374 189.654 49.6535C188.159 50.7585 186.797 51.974 185.561 53.3C184.326 54.6195 183.209 56.0105 182.206 57.473C181.974 57.798 181.754 58.1425 181.549 58.4935C181.343 58.8445 181.137 59.1955 180.931 59.553C180.778 59.7545 180.579 59.9495 180.333 60.138C180.087 60.3265 179.815 60.424 179.502 60.424L179.516 60.411Z" fill="black"/>
<path d="M193.255 60.372C191.919 60.372 190.982 59.9885 190.458 59.2215C189.933 58.4545 189.667 57.551 189.667 56.524C189.667 55.77 189.86 54.8665 190.245 53.8265C190.63 52.78 191.162 51.753 191.846 50.752C192.53 49.7445 193.321 48.906 194.218 48.243C195.115 47.5735 196.085 47.242 197.114 47.242C197.785 47.242 198.317 47.424 198.716 47.788C199.114 48.152 199.313 48.6135 199.313 49.166C199.313 50.2255 198.968 51.246 198.27 52.2275C197.573 53.209 196.676 54.015 195.566 54.6455C194.457 55.276 193.274 55.588 192.012 55.588C191.859 55.588 191.707 55.588 191.547 55.5685C191.394 55.5555 191.242 55.536 191.082 55.51C191.002 55.835 190.969 56.212 190.969 56.641C190.969 57.2975 191.129 57.902 191.454 58.4545C191.773 59.007 192.398 59.2865 193.328 59.2865C194.098 59.2865 194.849 59.098 195.566 58.721C196.284 58.344 196.889 57.915 197.38 57.434C197.872 56.953 198.284 56.5305 198.616 56.147C198.948 55.77 199.3 55.3345 199.659 54.847C200.018 54.353 200.469 53.7095 201.008 52.9035C201.107 52.728 201.267 52.637 201.473 52.637C201.831 52.637 202.011 52.8255 202.011 53.2025C202.011 53.326 201.984 53.43 201.931 53.5015C201.233 54.6585 200.463 55.7635 199.612 56.8035C198.762 57.85 197.819 58.708 196.776 59.371C195.733 60.034 194.557 60.372 193.241 60.372H193.255ZM192.291 54.405C193.268 54.405 194.191 54.145 195.048 53.6315C195.912 53.118 196.616 52.468 197.174 51.688C197.726 50.908 198.005 50.115 198.005 49.309C198.005 49.0295 197.932 48.8085 197.792 48.6265C197.653 48.451 197.413 48.36 197.075 48.36C196.404 48.36 195.759 48.581 195.141 49.023C194.523 49.465 193.965 50.0175 193.46 50.687C192.962 51.3565 192.537 52.013 192.185 52.6695C191.839 53.326 191.587 53.8785 191.434 54.3335C191.56 54.3595 191.7 54.379 191.839 54.392C191.979 54.405 192.132 54.4115 192.285 54.4115L192.291 54.405Z" fill="black"/>
</g>
<defs>
<clipPath id="clip0_284_498">
<rect width="202.629" height="65" fill="white"/>
</clipPath>
</defs>
</svg>
